<svg width="717" height="185" viewBox="0 0 717 185" fill="none" xmlns="http://www.w3.org/2000/svg">
<path d="M596.153 151.026V65.7447H615.364V80.2359H616.363C618.14 75.35 621.083 71.5375 625.191 68.7984C629.3 66.0223 634.204 64.6343 639.905 64.6343C645.679 64.6343 650.546 66.0408 654.507 68.8539C658.504 71.63 661.317 75.424 662.946 80.2359H663.834C665.722 75.498 668.905 71.7226 673.384 68.9094C677.9 66.0593 683.249 64.6343 689.43 64.6343C697.277 64.6343 703.681 67.1142 708.641 72.0742C713.601 77.0342 716.081 84.2705 716.081 93.7833V151.026H695.926V96.8925C695.926 91.5994 694.52 87.7314 691.706 85.2884C688.893 82.8084 685.451 81.5684 681.379 81.5684C676.53 81.5684 672.736 83.086 669.997 86.1212C667.295 89.1194 665.944 93.0245 665.944 97.8364V151.026H646.234V96.0597C646.234 91.6549 644.902 88.1385 642.236 85.5105C639.608 82.8825 636.166 81.5684 631.909 81.5684C629.022 81.5684 626.394 82.3087 624.025 83.7893C621.656 85.2329 619.769 87.2872 618.362 89.9522C616.955 92.5803 616.252 95.6525 616.252 99.1689V151.026H596.153Z" fill="#00061A"/>
<path d="M563.204 115.159V65.7447H583.303V151.026H563.815V135.869H562.926C561.001 140.644 557.837 144.549 553.432 147.584C549.064 150.619 543.679 152.137 537.275 152.137C531.686 152.137 526.744 150.897 522.451 148.417C518.194 145.9 514.863 142.254 512.457 137.479C510.051 132.667 508.848 126.856 508.848 120.045V65.7447H528.947V116.936C528.947 122.34 530.427 126.634 533.389 129.817C536.35 133 540.236 134.592 545.048 134.592C548.009 134.592 550.878 133.87 553.654 132.426C556.43 130.983 558.707 128.836 560.483 125.986C562.297 123.099 563.204 119.49 563.204 115.159Z" fill="#00061A"/>
<path d="M475.898 151.026V65.7447H495.997V151.026H475.898ZM486.003 53.6409C482.82 53.6409 480.081 52.586 477.786 50.4761C475.491 48.3293 474.344 45.7568 474.344 42.7586C474.344 39.7234 475.491 37.1509 477.786 35.041C480.081 32.8942 482.82 31.8208 486.003 31.8208C489.224 31.8208 491.963 32.8942 494.221 35.041C496.515 37.1509 497.663 39.7234 497.663 42.7586C497.663 45.7568 496.515 48.3293 494.221 50.4761C491.963 52.586 489.224 53.6409 486.003 53.6409Z" fill="#00061A"/>
<path d="M416.881 152.525C410.182 152.525 404.185 150.804 398.892 147.362C393.599 143.92 389.417 138.923 386.344 132.371C383.272 125.819 381.736 117.861 381.736 108.497C381.736 99.0208 383.291 91.0256 386.4 84.5111C389.546 77.9595 393.784 73.018 399.114 69.6867C404.445 66.3184 410.385 64.6342 416.937 64.6342C421.934 64.6342 426.043 65.4856 429.263 67.1882C432.483 68.8539 435.037 70.8712 436.925 73.2401C438.813 75.572 440.275 77.7744 441.311 79.8472H442.144V37.3174H462.298V151.026H442.533V137.59H441.311C440.275 139.663 438.776 141.865 436.814 144.197C434.852 146.492 432.261 148.454 429.041 150.082C425.82 151.711 421.767 152.525 416.881 152.525ZM422.489 136.035C426.746 136.035 430.373 134.888 433.371 132.593C436.37 130.261 438.646 127.022 440.201 122.877C441.755 118.731 442.533 113.901 442.533 108.385C442.533 102.87 441.755 98.0769 440.201 94.0053C438.683 89.9337 436.425 86.769 433.427 84.5111C430.466 82.2532 426.82 81.1242 422.489 81.1242C418.01 81.1242 414.272 82.2902 411.274 84.6221C408.276 86.954 406.018 90.1743 404.5 94.2829C402.982 98.3915 402.224 103.092 402.224 108.385C402.224 113.716 402.982 118.472 404.5 122.655C406.055 126.8 408.331 130.076 411.329 132.482C414.364 134.851 418.084 136.035 422.489 136.035Z" fill="#00061A"/>
<path d="M335.128 152.692C326.8 152.692 319.582 150.86 313.475 147.195C307.367 143.531 302.629 138.404 299.261 131.816C295.93 125.227 294.264 117.528 294.264 108.719C294.264 99.9092 295.93 92.1916 299.261 85.566C302.629 78.9404 307.367 73.7954 313.475 70.1309C319.582 66.4665 326.8 64.6343 335.128 64.6343C343.456 64.6343 350.674 66.4665 356.782 70.1309C362.889 73.7954 367.608 78.9404 370.94 85.566C374.308 92.1916 375.992 99.9092 375.992 108.719C375.992 117.528 374.308 125.227 370.94 131.816C367.608 138.404 362.889 143.531 356.782 147.195C350.674 150.86 343.456 152.692 335.128 152.692ZM335.239 136.591C339.755 136.591 343.53 135.351 346.566 132.871C349.601 130.354 351.859 126.985 353.339 122.766C354.857 118.546 355.616 113.845 355.616 108.663C355.616 103.444 354.857 98.7247 353.339 94.505C351.859 90.2484 349.601 86.8615 346.566 84.3445C343.53 81.8275 339.755 80.569 335.239 80.569C330.612 80.569 326.763 81.8275 323.691 84.3445C320.655 86.8615 318.379 90.2484 316.861 94.505C315.381 98.7247 314.641 103.444 314.641 108.663C314.641 113.845 315.381 118.546 316.861 122.766C318.379 126.985 320.655 130.354 323.691 132.871C326.763 135.351 330.612 136.591 335.239 136.591Z" fill="#00061A"/>
<path d="M287.34 88.2866L269.018 90.2854C268.5 88.4347 267.593 86.695 266.298 85.0663C265.039 83.4377 263.337 82.1237 261.19 81.1243C259.043 80.1249 256.415 79.6252 253.306 79.6252C249.123 79.6252 245.607 80.532 242.756 82.3457C239.943 84.1595 238.555 86.5099 238.592 89.397C238.555 91.877 239.462 93.8943 241.313 95.4489C243.201 97.0035 246.31 98.2805 250.64 99.2799L265.187 102.389C273.256 104.129 279.253 106.886 283.176 110.662C287.137 114.437 289.136 119.379 289.173 125.486C289.136 130.853 287.563 135.591 284.453 139.7C281.381 143.771 277.106 146.955 271.628 149.25C266.15 151.545 259.857 152.692 252.75 152.692C242.312 152.692 233.91 150.508 227.543 146.14C221.177 141.736 217.383 135.61 216.161 127.763L235.761 125.875C236.649 129.724 238.537 132.63 241.424 134.592C244.311 136.554 248.068 137.535 252.695 137.535C257.47 137.535 261.301 136.554 264.188 134.592C267.112 132.63 268.574 130.206 268.574 127.318C268.574 124.876 267.63 122.858 265.742 121.267C263.892 119.675 261.005 118.453 257.081 117.602L242.534 114.548C234.354 112.846 228.302 109.977 224.379 105.943C220.455 101.871 218.512 96.7259 218.549 90.5075C218.512 85.2514 219.937 80.6986 222.824 76.8491C225.748 72.9625 229.801 69.9644 234.983 67.8545C240.202 65.7077 246.217 64.6343 253.028 64.6343C263.022 64.6343 270.887 66.7626 276.625 71.0193C282.399 75.276 285.971 81.0317 287.34 88.2866Z" fill="#00061A"/>
<path fill-rule="evenodd" clip-rule="evenodd" d="M91.4805 5.06119C89.9804 5.02252 88.4597 5.02248 86.9193 5.06411L86.902 5.0646C66.3096 5.6793 48.2936 14.2544 34.717 26.5796C16.522 42.517 5.03253 65.922 5.03253 92.0105C5.03253 129.593 28.8762 161.606 62.2616 173.749C67.7368 176.136 74.0851 178.015 81.4418 178.916L81.4468 178.916C91.1176 180.093 100.554 179.386 109.505 177.195C149.128 169.088 178.934 134.03 178.934 92.0105C178.934 89.2034 178.801 86.4274 178.541 83.6884V83.4379H178.517C174.211 39.4402 137.112 5.05976 91.9832 5.05976C91.8156 5.05976 91.648 5.06024 91.4805 5.06119ZM42.6487 35.9128C55.6612 24.4601 72.6906 17.4636 91.3512 17.309C106.289 17.733 118.974 22.6211 128.451 28.0171C128.772 28.1999 129.09 28.3831 129.403 28.5667C117.575 28.5576 102.455 30.9603 88.5428 40.4103L88.4866 40.4489C69.3354 53.7715 63.608 73.3526 61.9787 83.44H19.6879C19.9885 77.7067 21.2458 70.3134 24.2211 62.3646C27.9892 52.7766 34.3469 43.5187 42.6487 35.9128ZM17.368 95.6866H73.6135V89.5633C73.6135 87.4213 75.3805 64.5047 95.4523 50.5216C107.052 42.6538 119.935 40.6783 130.357 40.8202C135.549 40.8908 140.036 41.4872 143.294 42.0913C144.92 42.3927 146.229 42.6939 147.153 42.9276C148.057 43.1563 148.545 43.3081 148.587 43.3212L148.664 43.3467C158.146 54.3805 164.462 68.2141 166.201 83.4379H110.353V89.5611C110.353 92.4871 109.417 117.371 88.2542 133.691C65.7386 150.902 43.5565 143.83 41.2327 143.055L35.7956 141.243C25.0208 128.955 18.212 113.104 17.368 95.6866ZM106.369 165.331C101.714 166.239 96.9043 166.715 91.9832 166.715C83.0879 166.715 74.5558 165.16 66.6436 162.307C63.3685 160.839 60.4705 159.141 57.8846 157.347C68.5483 156.956 82.1127 153.804 95.7029 143.412L95.7216 143.397C115.806 127.915 120.906 106.373 122.182 95.6844H166.143C165.746 103.001 164.375 111.995 159.946 121.195L159.931 121.226C150.191 141.748 129.98 159.626 106.369 165.331Z" fill="#2752E7"/>
<mask id="path-8-outside-1_2183_13058" maskUnits="userSpaceOnUse" x="0" y="0" width="184" height="185" fill="black">
<rect fill="white" width="184" height="185"/>
<path fill-rule="evenodd" clip-rule="evenodd" d="M88.5428 40.4103C100.931 31.9957 114.277 29.1688 125.402 28.6567C126.329 28.614 127.24 28.5874 128.134 28.575C128.561 28.5691 128.984 28.5664 129.403 28.5667C129.09 28.3831 128.772 28.1999 128.451 28.0171C127.615 27.5407 126.753 27.0682 125.867 26.6025C116.716 21.7928 104.97 17.6956 91.3512 17.309C72.6906 17.4636 55.6612 24.4601 42.6488 35.9128C34.3469 43.5187 27.9892 52.7767 24.2212 62.3647C21.5865 69.4035 20.2989 76.0068 19.8299 81.4075C19.7693 82.1056 19.7223 82.7837 19.6879 83.44H61.9787C63.608 73.3527 69.3354 53.7715 88.4866 40.449L88.5428 40.4103ZM60.2715 81.4075C62.3011 70.6565 68.5736 51.8255 87.3259 38.7804L87.3354 38.7738L87.4007 38.7289C98.9062 30.9139 111.187 27.7865 121.832 26.8576C113.41 22.8611 103.079 19.6813 91.3308 19.3418C73.1989 19.5012 56.6559 26.2985 44.0068 37.4252C35.9346 44.8248 29.7673 53.8165 26.1189 63.0927C23.5848 69.8675 22.3364 76.2168 21.8703 81.4075H60.2715ZM110.353 83.4379H166.201C166.123 82.7576 166.036 82.08 165.94 81.4053C163.891 66.9833 157.722 53.8875 148.664 43.3467L148.587 43.3212C148.545 43.3079 148.056 43.1561 147.153 42.9276C146.229 42.6939 144.92 42.3927 143.294 42.0913C140.036 41.4872 135.549 40.8909 130.357 40.8202C119.935 40.6784 107.052 42.6538 95.4523 50.5217C75.3805 64.5047 73.6135 87.4213 73.6135 89.5633V95.6866H17.368C17.4009 96.3665 17.443 97.0441 17.494 97.7191C18.7496 114.336 25.4414 129.435 35.7956 141.243L41.2327 143.055C43.5565 143.83 65.7386 150.902 88.2542 133.691C109.417 117.371 110.353 92.4872 110.353 89.5612V83.4379ZM87.0163 132.079C65.3183 148.662 43.9921 141.832 41.8755 141.127L36.9646 139.49C27.1272 128.101 20.7684 113.629 19.5325 97.7191H75.6461V89.5633C75.6461 88.7277 76.0468 82.7093 78.9053 75.2065C81.7514 67.7365 86.9944 58.8947 96.6038 52.1966C107.745 44.6438 120.168 42.7143 130.329 42.8526C135.385 42.9214 139.755 43.5024 142.924 44.0898C144.504 44.3827 145.77 44.6743 146.655 44.8981C147.009 44.9878 147.294 45.0645 147.509 45.1241C156.051 55.2303 161.883 67.6969 163.887 81.4053H108.321V89.5612C108.321 92.3184 107.399 116.357 87.0163 132.079ZM86.9193 5.06413C88.4597 5.0225 89.9804 5.02254 91.4805 5.06121C91.648 5.06026 91.8156 5.05979 91.9833 5.05979C137.112 5.05979 174.211 39.4402 178.517 83.4379H178.541V83.6884C178.801 86.4274 178.934 89.2034 178.934 92.0105C178.934 134.03 149.128 169.088 109.505 177.195C100.554 179.386 91.1176 180.093 81.4468 178.916L81.4418 178.916C74.0852 178.015 67.7368 176.136 62.2616 173.749C28.8762 161.607 5.03255 129.593 5.03255 92.0105C5.03255 65.922 16.522 42.5171 34.717 26.5796C48.2936 14.2545 66.3096 5.67932 86.902 5.06462L86.9193 5.06413ZM33.3641 25.0626C14.7552 41.3693 3 65.3184 3 92.0105C3 130.452 27.3757 163.196 61.5074 175.637C67.142 178.087 73.6612 180.011 81.1942 180.933C81.194 180.933 81.1944 180.933 81.1942 180.933L81.2014 180.934C91.1161 182.14 100.787 181.417 109.95 179.179C150.481 170.867 180.967 135.001 180.967 92.0105C180.967 89.1721 180.834 86.3642 180.573 83.5927V81.4053H180.341C175.097 37.2596 137.539 3.02724 91.9833 3.02724C91.8224 3.02724 91.6616 3.02767 91.501 3.02852C89.9758 2.98976 88.4301 2.99001 86.8644 3.03232L86.8443 3.03289L86.8414 3.03298C65.7115 3.66372 47.2505 12.4613 33.3641 25.0626ZM95.703 143.412C83.5075 152.737 71.333 156.233 61.2566 157.135C60.1042 157.238 58.9791 157.307 57.8846 157.347C58.803 157.984 59.7608 158.609 60.7608 159.216C62.5766 160.318 64.5317 161.361 66.6436 162.307C74.5558 165.16 83.088 166.715 91.9833 166.715C96.9043 166.715 101.714 166.239 106.369 165.331C129.98 159.626 150.192 141.749 159.931 121.226L159.946 121.195C163.973 112.83 165.472 104.636 166.009 97.717C166.063 97.0264 166.107 96.3485 166.143 95.6845H122.182C120.906 106.373 115.806 127.915 95.7217 143.397L95.703 143.412ZM123.964 97.717C122.31 109.154 116.59 129.877 96.9626 145.007L96.9376 145.026C85.4923 153.778 74.0389 157.55 64.2171 158.851C65.2373 159.398 66.2991 159.923 67.4053 160.421C75.0792 163.179 83.3534 164.682 91.9833 164.682C96.7573 164.682 101.422 164.222 105.936 163.344C128.884 157.784 148.603 140.355 158.095 120.355L158.097 120.349L158.114 120.313C161.971 112.304 163.436 104.435 163.971 97.717H123.964Z"/>
</mask>
<path fill-rule="evenodd" clip-rule="evenodd" d="M88.5428 40.4103C100.931 31.9957 114.277 29.1688 125.402 28.6567C126.329 28.614 127.24 28.5874 128.134 28.575C128.561 28.5691 128.984 28.5664 129.403 28.5667C129.09 28.3831 128.772 28.1999 128.451 28.0171C127.615 27.5407 126.753 27.0682 125.867 26.6025C116.716 21.7928 104.97 17.6956 91.3512 17.309C72.6906 17.4636 55.6612 24.4601 42.6488 35.9128C34.3469 43.5187 27.9892 52.7767 24.2212 62.3647C21.5865 69.4035 20.2989 76.0068 19.8299 81.4075C19.7693 82.1056 19.7223 82.7837 19.6879 83.44H61.9787C63.608 73.3527 69.3354 53.7715 88.4866 40.449L88.5428 40.4103ZM60.2715 81.4075C62.3011 70.6565 68.5736 51.8255 87.3259 38.7804L87.3354 38.7738L87.4007 38.7289C98.9062 30.9139 111.187 27.7865 121.832 26.8576C113.41 22.8611 103.079 19.6813 91.3308 19.3418C73.1989 19.5012 56.6559 26.2985 44.0068 37.4252C35.9346 44.8248 29.7673 53.8165 26.1189 63.0927C23.5848 69.8675 22.3364 76.2168 21.8703 81.4075H60.2715ZM110.353 83.4379H166.201C166.123 82.7576 166.036 82.08 165.94 81.4053C163.891 66.9833 157.722 53.8875 148.664 43.3467L148.587 43.3212C148.545 43.3079 148.056 43.1561 147.153 42.9276C146.229 42.6939 144.92 42.3927 143.294 42.0913C140.036 41.4872 135.549 40.8909 130.357 40.8202C119.935 40.6784 107.052 42.6538 95.4523 50.5217C75.3805 64.5047 73.6135 87.4213 73.6135 89.5633V95.6866H17.368C17.4009 96.3665 17.443 97.0441 17.494 97.7191C18.7496 114.336 25.4414 129.435 35.7956 141.243L41.2327 143.055C43.5565 143.83 65.7386 150.902 88.2542 133.691C109.417 117.371 110.353 92.4872 110.353 89.5612V83.4379ZM87.0163 132.079C65.3183 148.662 43.9921 141.832 41.8755 141.127L36.9646 139.49C27.1272 128.101 20.7684 113.629 19.5325 97.7191H75.6461V89.5633C75.6461 88.7277 76.0468 82.7093 78.9053 75.2065C81.7514 67.7365 86.9944 58.8947 96.6038 52.1966C107.745 44.6438 120.168 42.7143 130.329 42.8526C135.385 42.9214 139.755 43.5024 142.924 44.0898C144.504 44.3827 145.77 44.6743 146.655 44.8981C147.009 44.9878 147.294 45.0645 147.509 45.1241C156.051 55.2303 161.883 67.6969 163.887 81.4053H108.321V89.5612C108.321 92.3184 107.399 116.357 87.0163 132.079ZM86.9193 5.06413C88.4597 5.0225 89.9804 5.02254 91.4805 5.06121C91.648 5.06026 91.8156 5.05979 91.9833 5.05979C137.112 5.05979 174.211 39.4402 178.517 83.4379H178.541V83.6884C178.801 86.4274 178.934 89.2034 178.934 92.0105C178.934 134.03 149.128 169.088 109.505 177.195C100.554 179.386 91.1176 180.093 81.4468 178.916L81.4418 178.916C74.0852 178.015 67.7368 176.136 62.2616 173.749C28.8762 161.607 5.03255 129.593 5.03255 92.0105C5.03255 65.922 16.522 42.5171 34.717 26.5796C48.2936 14.2545 66.3096 5.67932 86.902 5.06462L86.9193 5.06413ZM33.3641 25.0626C14.7552 41.3693 3 65.3184 3 92.0105C3 130.452 27.3757 163.196 61.5074 175.637C67.142 178.087 73.6612 180.011 81.1942 180.933C81.194 180.933 81.1944 180.933 81.1942 180.933L81.2014 180.934C91.1161 182.14 100.787 181.417 109.95 179.179C150.481 170.867 180.967 135.001 180.967 92.0105C180.967 89.1721 180.834 86.3642 180.573 83.5927V81.4053H180.341C175.097 37.2596 137.539 3.02724 91.9833 3.02724C91.8224 3.02724 91.6616 3.02767 91.501 3.02852C89.9758 2.98976 88.4301 2.99001 86.8644 3.03232L86.8443 3.03289L86.8414 3.03298C65.7115 3.66372 47.2505 12.4613 33.3641 25.0626ZM95.703 143.412C83.5075 152.737 71.333 156.233 61.2566 157.135C60.1042 157.238 58.9791 157.307 57.8846 157.347C58.803 157.984 59.7608 158.609 60.7608 159.216C62.5766 160.318 64.5317 161.361 66.6436 162.307C74.5558 165.16 83.088 166.715 91.9833 166.715C96.9043 166.715 101.714 166.239 106.369 165.331C129.98 159.626 150.192 141.749 159.931 121.226L159.946 121.195C163.973 112.83 165.472 104.636 166.009 97.717C166.063 97.0264 166.107 96.3485 166.143 95.6845H122.182C120.906 106.373 115.806 127.915 95.7217 143.397L95.703 143.412ZM123.964 97.717C122.31 109.154 116.59 129.877 96.9626 145.007L96.9376 145.026C85.4923 153.778 74.0389 157.55 64.2171 158.851C65.2373 159.398 66.2991 159.923 67.4053 160.421C75.0792 163.179 83.3534 164.682 91.9833 164.682C96.7573 164.682 101.422 164.222 105.936 163.344C128.884 157.784 148.603 140.355 158.095 120.355L158.097 120.349L158.114 120.313C161.971 112.304 163.436 104.435 163.971 97.717H123.964Z" fill="#2752E7"/>
<path d="M40.6896 140.731L40.0469 142.66L42.4186 143.45L43.0613 141.522L40.6896 140.731ZM125.402 28.6567L125.517 31.154L125.402 28.6567ZM88.5428 40.4103L87.1381 38.3423L87.1269 38.3499L88.5428 40.4103ZM128.134 28.575L128.099 26.0753H128.099L128.134 28.575ZM129.403 28.5667L129.401 31.0667L138.626 31.0738L130.667 26.4098L129.403 28.5667ZM128.451 28.0171L127.214 30.1897L127.214 30.1897L128.451 28.0171ZM125.867 26.6025L124.703 28.8154V28.8154L125.867 26.6025ZM91.3512 17.309L91.4222 14.81L91.3764 14.8087L91.3305 14.8091L91.3512 17.309ZM42.6488 35.9128L40.9971 34.0361L40.9783 34.0526L40.9599 34.0694L42.6488 35.9128ZM24.2212 62.3647L21.8944 61.4503L21.8869 61.4692L21.8798 61.4883L24.2212 62.3647ZM19.8299 81.4075L22.3205 81.6237L19.8299 81.4075ZM19.6879 83.44L17.1913 83.3091L17.0534 85.94H19.6879V83.44ZM61.9787 83.44V85.94H64.1073L64.4467 83.8386L61.9787 83.44ZM88.4866 40.449L87.0707 38.3886L87.0648 38.3926L87.0589 38.3967L88.4866 40.449ZM87.3259 38.7804L88.7535 40.8327L88.7538 40.8325L87.3259 38.7804ZM60.2715 81.4075V83.9075H62.3437L62.7281 81.8712L60.2715 81.4075ZM87.3354 38.7738L85.9204 36.7128L85.9139 36.7173L85.9074 36.7218L87.3354 38.7738ZM87.4007 38.7289L85.996 36.6609L85.9857 36.6679L87.4007 38.7289ZM121.832 26.8576L122.05 29.3481L131.225 28.5475L122.904 24.599L121.832 26.8576ZM91.3308 19.3418L91.403 16.8428L91.3559 16.8415L91.3088 16.8419L91.3308 19.3418ZM44.0068 37.4252L42.3557 35.548L42.3364 35.565L42.3175 35.5823L44.0068 37.4252ZM26.1189 63.0927L23.7924 62.1777L23.7847 62.1972L23.7774 62.2169L26.1189 63.0927ZM21.8703 81.4075L19.3804 81.1839L19.1358 83.9075H21.8703V81.4075ZM110.353 83.4379V80.9379H107.853V83.4379H110.353ZM166.201 83.4379V85.9379H169.003L168.685 83.1541L166.201 83.4379ZM165.94 81.4053L163.465 81.7571V81.7571L165.94 81.4053ZM148.664 43.3467L150.56 41.7174L150.11 41.1927L149.453 40.9744L148.664 43.3467ZM148.587 43.3212L149.376 40.9488L149.353 40.9411L149.329 40.9337L148.587 43.3212ZM147.153 42.9276L147.766 40.5039V40.5039L147.153 42.9276ZM143.294 42.0913L143.75 39.6332L143.294 42.0913ZM130.357 40.8202L130.323 43.32L130.357 40.8202ZM95.4523 50.5217L94.049 48.4527L94.036 48.4614L94.0233 48.4704L95.4523 50.5217ZM73.6135 95.6866V98.1866H76.1135V95.6866H73.6135ZM17.368 95.6866V93.1866H14.7439L14.8709 95.8076L17.368 95.6866ZM17.494 97.7191L15.0011 97.9075L17.494 97.7191ZM35.7956 141.243L33.916 142.891L34.3625 143.4L35.005 143.614L35.7956 141.243ZM41.2327 143.055L42.0233 140.683H42.0233L41.2327 143.055ZM88.2542 133.691L89.7725 135.677L89.7809 135.67L88.2542 133.691ZM87.0163 132.079L88.5344 134.065L88.5431 134.058L87.0163 132.079ZM41.8755 141.127L41.0849 143.498H41.0849L41.8755 141.127ZM36.9646 139.49L35.0727 141.124L35.5219 141.644L36.174 141.862L36.9646 139.49ZM19.5325 97.7191V95.2191H16.8308L17.04 97.9127L19.5325 97.7191ZM75.6461 97.7191V100.219H78.1461V97.7191H75.6461ZM78.9053 75.2065L76.5692 74.3164V74.3165L78.9053 75.2065ZM96.6038 52.1966L95.201 50.1273L95.1876 50.1364L95.1742 50.1457L96.6038 52.1966ZM130.329 42.8526L130.363 40.3528L130.329 42.8526ZM142.924 44.0898L143.379 41.6317H143.379L142.924 44.0898ZM146.655 44.8981L147.268 42.4744L147.268 42.4744L146.655 44.8981ZM147.509 45.1241L149.418 43.5102L148.921 42.922L148.179 42.7155L147.509 45.1241ZM163.887 81.4053V83.9053H166.779L166.361 81.0437L163.887 81.4053ZM108.321 81.4053V78.9053H105.821V81.4053H108.321ZM91.4805 5.06121L91.4161 7.56038L91.4554 7.56139L91.4947 7.56117L91.4805 5.06121ZM86.9193 5.06413L86.8518 2.56504L86.8483 2.56514L86.9193 5.06413ZM178.517 83.4379L176.029 83.6814L176.249 85.9379H178.517V83.4379ZM178.541 83.4379H181.041V80.9379H178.541V83.4379ZM178.541 83.6884H176.041V83.8068L176.052 83.9247L178.541 83.6884ZM109.505 177.195L109.004 174.746L108.957 174.755L108.91 174.767L109.505 177.195ZM81.4468 178.916L81.1422 181.398L81.145 181.398L81.4468 178.916ZM81.4418 178.916L81.7464 176.434L81.7457 176.434L81.4418 178.916ZM62.2616 173.749L63.2606 171.457L63.1892 171.426L63.1161 171.399L62.2616 173.749ZM34.717 26.5796L36.3642 28.4602L36.3809 28.4455L36.3974 28.4306L34.717 26.5796ZM86.902 5.06462L86.831 2.56563L86.8275 2.56573L86.902 5.06462ZM33.3641 25.0626L35.0117 26.9428L35.0281 26.9285L35.0441 26.9139L33.3641 25.0626ZM61.5074 175.637L62.5043 173.345L62.4348 173.315L62.3636 173.289L61.5074 175.637ZM81.2014 180.934L80.8966 183.415L80.8996 183.416L81.2014 180.934ZM109.95 179.179L109.448 176.73L109.402 176.739L109.357 176.75L109.95 179.179ZM180.573 83.5927H178.073V83.7098L178.084 83.8263L180.573 83.5927ZM180.573 81.4053H183.073V78.9053H180.573V81.4053ZM180.341 81.4053L177.858 81.7002L178.12 83.9053H180.341V81.4053ZM91.501 3.02852L91.4375 5.52771L91.4759 5.52869L91.5143 5.52849L91.501 3.02852ZM86.8644 3.03232L86.7969 0.533235L86.7936 0.533327L86.8644 3.03232ZM86.8443 3.03289L86.7735 0.533893L86.7697 0.534006L86.8443 3.03289ZM86.8414 3.03298L86.7668 0.534092L86.7668 0.534094L86.8414 3.03298ZM61.2566 157.135L61.0339 154.644H61.0339L61.2566 157.135ZM95.703 143.412L97.2216 145.398L97.2293 145.392L95.703 143.412ZM57.8846 157.347L57.7932 154.848L50.2926 155.123L56.4597 159.401L57.8846 157.347ZM60.7608 159.216L59.4636 161.353L60.7608 159.216ZM66.6436 162.307L65.6211 164.589L65.7071 164.627L65.7957 164.659L66.6436 162.307ZM106.369 165.331L106.848 167.784L106.903 167.774L106.957 167.761L106.369 165.331ZM159.931 121.226L157.676 120.148L157.672 120.154L159.931 121.226ZM159.946 121.195L157.693 120.111L157.69 120.117L159.946 121.195ZM166.009 97.717L168.502 97.9106L168.502 97.9106L166.009 97.717ZM166.143 95.6845L168.64 95.82L168.783 93.1845H166.143V95.6845ZM122.182 95.6845V93.1845H119.963L119.7 95.3881L122.182 95.6845ZM95.7217 143.397L94.1954 141.417L94.1953 141.417L95.7217 143.397ZM96.9626 145.007L95.4363 143.027L95.4362 143.027L96.9626 145.007ZM123.964 97.717V95.217H121.799L121.49 97.3592L123.964 97.717ZM96.9376 145.026L98.4563 147.012L98.4641 147.006L96.9376 145.026ZM64.2171 158.851L63.889 156.372L56.2061 157.39L63.0351 161.054L64.2171 158.851ZM67.4053 160.421L66.3793 162.701L66.4682 162.741L66.5599 162.774L67.4053 160.421ZM105.936 163.344L106.413 165.798L106.469 165.788L106.525 165.774L105.936 163.344ZM158.095 120.355L160.353 121.427L160.354 121.424L158.095 120.355ZM158.097 120.349L155.842 119.27L155.838 119.28L158.097 120.349ZM158.114 120.313L155.862 119.229L155.86 119.234L158.114 120.313ZM163.971 97.717L166.463 97.9155L166.678 95.217H163.971V97.717ZM125.288 26.1593C113.843 26.6861 100.012 29.5981 87.1381 38.3423L89.9475 42.4784C101.85 34.3933 114.71 31.6515 125.517 31.154L125.288 26.1593ZM128.099 26.0753C127.179 26.088 126.241 26.1154 125.288 26.1593L125.517 31.154C126.416 31.1127 127.301 31.0868 128.169 31.0748L128.099 26.0753ZM129.405 26.0667C128.974 26.0664 128.538 26.0691 128.099 26.0753L128.169 31.0748C128.583 31.069 128.994 31.0664 129.401 31.0667L129.405 26.0667ZM127.214 30.1897C127.526 30.3673 127.834 30.5453 128.139 30.7236L130.667 26.4098C130.345 26.221 130.018 26.0325 129.688 25.8446L127.214 30.1897ZM124.703 28.8154C125.564 29.2678 126.401 29.7268 127.214 30.1897L129.688 25.8446C128.828 25.3546 127.941 24.8687 127.03 24.3895L124.703 28.8154ZM91.2803 19.808C104.435 20.1814 115.809 24.1401 124.703 28.8154L127.03 24.3895C117.624 19.4454 105.505 15.2097 91.4222 14.81L91.2803 19.808ZM44.3005 37.7894C56.879 26.7187 73.3348 19.9584 91.372 19.8089L91.3305 14.8091C72.0465 14.9689 54.4434 22.2016 40.9971 34.0361L44.3005 37.7894ZM26.5479 63.2791C30.1706 54.0608 36.3036 45.1166 44.3376 37.7561L40.9599 34.0694C32.3901 41.9209 25.8077 51.4925 21.8944 61.4503L26.5479 63.2791ZM22.3205 81.6237C22.7712 76.4336 24.0125 70.0537 26.5625 63.2411L21.8798 61.4883C19.1605 68.7532 17.8265 75.5799 17.3393 81.1912L22.3205 81.6237ZM22.1845 83.5709C22.2174 82.9434 22.2623 82.2938 22.3205 81.6237L17.3393 81.1912C17.2762 81.9175 17.2273 82.624 17.1913 83.3091L22.1845 83.5709ZM87.0589 38.3967C67.1219 52.2659 61.1936 72.6221 59.5107 83.0414L64.4467 83.8386C66.0224 74.0832 71.5489 55.2771 89.9142 42.5012L87.0589 38.3967ZM87.1269 38.3499L87.0707 38.3886L89.9025 42.5094L89.9587 42.4707L87.1269 38.3499ZM85.8982 36.7282C66.3999 50.2922 59.9091 69.8505 57.8149 80.9437L62.7281 81.8712C64.6931 71.4625 70.7474 53.3587 88.7535 40.8327L85.8982 36.7282ZM85.9074 36.7218L85.8979 36.7284L88.7538 40.8325L88.7634 40.8259L85.9074 36.7218ZM121.615 24.3671C110.658 25.3232 97.9382 28.5493 85.996 36.6609L88.8055 40.797C99.8742 33.2786 111.717 30.2498 122.05 29.3481L121.615 24.3671ZM91.2586 21.8407C102.595 22.1684 112.586 25.2372 120.76 29.1162L122.904 24.599C114.234 20.4849 103.563 17.1943 91.403 16.8428L91.2586 21.8407ZM45.658 39.3023C57.8736 28.557 73.8436 21.9956 91.3528 21.8417L91.3088 16.8419C72.5543 17.0067 55.4383 24.0401 42.3557 35.548L45.658 39.3023ZM28.4454 64.0078C31.9486 55.1008 37.8915 46.4224 45.6962 39.268L42.3175 35.5823C33.9777 43.2273 27.586 52.5322 23.7924 62.1777L28.4454 64.0078ZM24.3603 81.631C24.8077 76.6483 26.01 70.5197 28.4605 63.9686L23.7774 62.2169C21.1596 69.2152 19.8651 75.7853 19.3804 81.1839L24.3603 81.631ZM60.2715 78.9075H21.8703V83.9075H60.2715V78.9075ZM163.465 81.7571C163.558 82.4092 163.642 83.064 163.717 83.7217L168.685 83.1541C168.604 82.4511 168.515 81.7508 168.416 81.0536L163.465 81.7571ZM146.768 44.9761C155.525 55.1661 161.485 67.8219 163.465 81.7571L168.416 81.0536C166.297 66.1448 159.92 52.6088 150.56 41.7174L146.768 44.9761ZM147.799 45.6935L147.876 45.7191L149.453 40.9744L149.376 40.9488L147.799 45.6935ZM146.54 45.3513C147.394 45.5674 147.839 45.7066 147.846 45.7086L149.329 40.9337C149.25 40.9091 148.719 40.7449 147.766 40.5039L146.54 45.3513ZM142.839 44.5494C144.408 44.8404 145.664 45.1298 146.54 45.3513L147.766 40.5039C146.794 40.258 145.432 39.9451 143.75 39.6332L142.839 44.5494ZM130.323 43.32C135.347 43.3883 139.691 43.9658 142.839 44.5494L143.75 39.6332C140.381 39.0087 135.751 38.3934 130.391 38.3204L130.323 43.32ZM96.8557 52.5906C107.895 45.1029 120.218 43.1825 130.323 43.32L130.391 38.3204C119.652 38.1743 106.209 40.2046 94.049 48.4527L96.8557 52.5906ZM76.1135 89.5633C76.1135 88.7818 76.5048 82.8201 79.3422 75.3729C82.1654 67.9628 87.3619 59.2047 96.8813 52.573L94.0233 48.4704C83.4709 55.8217 77.748 65.5134 74.6698 73.5928C71.6057 81.6352 71.1135 88.2028 71.1135 89.5633H76.1135ZM19.9869 97.5308C19.9376 96.8781 19.8969 96.223 19.8651 95.5656L14.8709 95.8076C14.905 96.51 14.9484 97.21 15.0011 97.9075L19.9869 97.5308ZM37.6753 139.594C27.6658 128.18 21.2003 113.589 19.9869 97.5308L15.0011 97.9075C16.299 115.083 23.2171 130.69 33.916 142.891L37.6753 139.594ZM42.0233 140.683L36.5862 138.871L35.005 143.614L40.4421 145.427L42.0233 140.683ZM86.736 131.705C65.2245 148.148 44.0925 141.373 42.0233 140.683L40.4421 145.427C43.0206 146.286 66.2527 153.656 89.7724 135.677L86.736 131.705ZM107.853 89.5612C107.853 92.2797 106.935 116.128 86.7275 131.711L89.7809 135.67C111.898 118.614 112.853 92.6946 112.853 89.5612H107.853ZM85.4982 130.092C64.8038 145.909 44.5268 139.375 42.666 138.755L41.0849 143.498C43.4575 144.289 65.8329 151.415 88.5343 134.065L85.4982 130.092ZM42.666 138.755L37.7552 137.118L36.174 141.862L41.0849 143.498L42.666 138.755ZM38.8565 137.856C29.3558 126.856 23.2181 112.886 22.025 97.5255L17.04 97.9127C18.3186 114.373 24.8985 129.345 35.0727 141.124L38.8565 137.856ZM78.1461 89.5633C78.1461 89.0173 78.4964 83.3018 81.2415 76.0966L76.5692 74.3165C73.5972 82.1169 73.1461 88.4382 73.1461 89.5633H78.1461ZM81.2415 76.0966C83.9601 68.9612 88.94 60.5859 98.0334 54.2475L95.1742 50.1457C85.0488 57.2035 79.5427 66.5117 76.5692 74.3164L81.2415 76.0966ZM98.0067 54.2659C108.588 47.0929 120.451 45.2184 130.295 45.3523L130.363 40.3528C119.885 40.2102 106.902 42.1946 95.201 50.1273L98.0067 54.2659ZM130.295 45.3523C135.183 45.4188 139.41 45.981 142.468 46.5479L143.379 41.6317C140.1 41.0238 135.587 40.4239 130.363 40.3528L130.295 45.3523ZM142.468 46.5479C143.991 46.8303 145.205 47.1102 146.042 47.3218L147.268 42.4744C146.334 42.2384 145.016 41.9351 143.379 41.6317L142.468 46.5479ZM146.042 47.3218C146.377 47.4066 146.643 47.4782 146.838 47.5326L148.179 42.7155C147.946 42.6508 147.642 42.569 147.268 42.4744L146.042 47.3218ZM145.599 46.738C153.85 56.4985 159.479 68.5342 161.413 81.767L166.361 81.0437C164.287 66.8595 158.253 53.9622 149.418 43.5102L145.599 46.738ZM105.821 89.5612C105.821 92.1101 104.918 115.114 85.4894 130.099L88.5431 134.058C109.88 117.601 110.821 92.5266 110.821 89.5612H105.821ZM91.545 2.56204C90.0013 2.52225 88.4367 2.52221 86.8518 2.56504L86.9869 7.56322C88.4828 7.52279 89.9594 7.52283 91.4161 7.56038L91.545 2.56204ZM91.9833 2.55979C91.8109 2.55979 91.6386 2.56027 91.4664 2.56125L91.4947 7.56117C91.6574 7.56025 91.8203 7.55979 91.9833 7.55979V2.55979ZM181.005 83.1944C176.575 37.929 138.411 2.55979 91.9833 2.55979V7.55979C135.813 7.55979 171.847 40.9514 176.029 83.6814L181.005 83.1944ZM178.541 80.9379H178.517V85.9379H178.541V80.9379ZM181.041 83.6884V83.4379H176.041V83.6884H181.041ZM181.434 92.0105C181.434 89.1244 181.297 86.2695 181.03 83.4521L176.052 83.9247C176.305 86.5853 176.434 89.2824 176.434 92.0105H181.434ZM110.006 179.644C150.769 171.304 181.434 135.241 181.434 92.0105H176.434C176.434 132.819 147.486 166.872 109.004 174.746L110.006 179.644ZM81.145 181.398C91.1324 182.613 100.873 181.881 110.099 179.623L108.91 174.767C100.236 176.89 91.1028 177.572 81.7486 176.435L81.145 181.398ZM81.1373 181.397L81.1422 181.398L81.7514 176.435L81.7464 176.434L81.1373 181.397ZM61.2625 176.041C66.9503 178.52 73.5322 180.466 81.138 181.397L81.7457 176.434C74.6381 175.564 68.5233 173.751 63.2606 171.457L61.2625 176.041ZM2.53255 92.0105C2.53255 130.678 27.0655 163.608 61.4071 176.098L63.1161 171.399C30.687 159.605 7.53255 128.509 7.53255 92.0105H2.53255ZM33.0697 24.699C14.3558 41.091 2.53255 65.1715 2.53255 92.0105H7.53255C7.53255 66.6725 18.6882 43.9431 36.3642 28.4602L33.0697 24.699ZM86.8275 2.56573C65.5657 3.20042 46.9961 12.0558 33.0366 24.7286L36.3974 28.4306C49.5911 16.4531 67.0535 8.15823 86.9766 7.56351L86.8275 2.56573ZM86.8483 2.56514L86.831 2.56563L86.9731 7.56361L86.9904 7.56312L86.8483 2.56514ZM31.7165 23.1823C12.5889 39.9436 0.5 64.568 0.5 92.0105H5.5C5.5 66.0687 16.9214 42.7951 35.0117 26.9428L31.7165 23.1823ZM0.5 92.0105C0.5 131.536 25.5643 165.197 60.6513 177.986L62.3636 173.289C29.1872 161.195 5.5 129.368 5.5 92.0105H0.5ZM60.5105 177.93C66.3571 180.472 73.1091 182.462 80.8904 183.415L81.4981 178.452C74.2132 177.56 67.9269 175.703 62.5043 173.345L60.5105 177.93ZM80.8934 183.415C80.8934 183.415 80.8934 183.415 80.8934 183.415C80.8934 183.415 80.8934 183.415 80.8934 183.415C80.8935 183.415 80.8934 183.415 80.8934 183.415C83.6761 181.234 81.4951 178.451 81.4951 178.451C81.4951 178.451 81.4951 178.451 81.4951 178.451C81.4951 178.451 81.4951 178.451 81.4951 178.451C81.4951 178.451 81.4951 178.451 81.4951 178.451C81.495 178.451 81.4952 178.451 81.4951 178.451C81.495 178.451 81.4952 178.451 81.4951 178.451H81.495C81.495 178.451 81.4951 178.451 81.495 178.451C81.495 178.451 81.495 178.451 81.495 178.451H81.495C81.495 178.451 81.495 178.451 81.495 178.451C81.495 178.451 81.495 178.451 81.495 178.451H81.495H81.495H81.495C81.495 178.451 81.495 178.451 81.495 178.451C81.495 178.451 83.676 181.234 80.8934 183.415C80.8933 183.415 80.8933 183.415 80.8933 183.415C80.8933 183.415 80.8933 183.415 80.8933 183.415C80.8934 183.415 80.8933 183.415 80.8934 183.415L81.495 178.451C81.495 178.451 81.495 178.451 81.495 178.451C81.495 178.451 81.495 178.451 81.495 178.451C81.495 178.451 81.495 178.451 81.495 178.451C81.495 178.451 81.495 178.451 81.495 178.451C81.495 178.451 81.495 178.451 81.495 178.451C78.7123 180.632 80.8933 183.415 80.8933 183.415C80.8933 183.415 80.8933 183.415 80.8933 183.415C80.8935 183.415 80.8932 183.415 80.8934 183.415C80.8934 183.415 80.8933 183.415 80.8934 183.415C80.8934 183.415 80.8934 183.415 80.8934 183.415C80.8935 183.415 80.8934 183.415 80.8934 183.415C80.8934 183.415 80.8934 183.415 80.8934 183.415C80.8934 183.415 80.8934 183.415 80.8934 183.415C80.8934 183.415 80.8934 183.415 80.8934 183.415C80.8935 183.415 80.8935 183.415 80.8935 183.415C80.8934 183.415 78.7124 180.632 81.495 178.451C81.4951 178.451 81.4951 178.451 81.4951 178.451C81.4951 178.451 81.4951 178.451 81.4951 178.451C81.4951 178.451 81.4951 178.451 81.495 178.451L80.8934 183.415ZM80.8996 183.416C91.1305 184.66 101.104 183.913 110.543 181.607L109.357 176.75C100.469 178.921 91.1017 179.62 81.5032 178.452L80.8996 183.416ZM110.452 181.628C152.123 173.083 183.467 136.212 183.467 92.0105H178.467C178.467 133.79 148.84 168.652 109.448 176.73L110.452 181.628ZM183.467 92.0105C183.467 89.094 183.33 86.2081 183.062 83.3591L178.084 83.8263C178.337 86.5202 178.467 89.2502 178.467 92.0105H183.467ZM180.573 78.9053H180.341V83.9053H180.573V78.9053ZM182.823 81.1105C177.432 35.7219 138.821 0.527241 91.9833 0.527241V5.52724C136.257 5.52724 172.762 38.7972 177.858 81.7002L182.823 81.1105ZM91.9833 0.527241C91.818 0.527241 91.6528 0.52768 91.4877 0.528556L91.5143 5.52849C91.6705 5.52766 91.8268 5.52724 91.9833 5.52724V0.527241ZM91.5645 0.529328C89.9962 0.489467 88.4067 0.48973 86.7969 0.533237L86.932 5.53141C88.4534 5.49029 89.9555 5.49005 91.4375 5.52771L91.5645 0.529328ZM86.7697 0.534006L86.7668 0.534092L86.916 5.53187L86.9189 5.53178L86.7697 0.534006ZM86.7668 0.534094C64.9677 1.18481 45.9533 10.2625 31.6841 23.2112L35.0441 26.9139C48.5477 14.66 66.4553 6.14263 86.916 5.53187L86.7668 0.534094ZM61.4794 159.625C71.9653 158.687 84.6045 155.046 97.2216 145.398L94.1843 141.426C82.4106 150.429 70.7006 153.78 61.0339 154.644L61.4794 159.625ZM57.9761 159.845C59.1131 159.804 60.2819 159.732 61.4794 159.625L61.0339 154.644C59.9264 154.744 58.8452 154.81 57.7932 154.848L57.9761 159.845ZM62.058 157.079C61.1036 156.5 60.1884 155.902 59.3096 155.293L56.4597 159.401C57.4177 160.066 58.418 160.718 59.4636 161.353L62.058 157.079ZM67.6662 160.026C65.6544 159.124 63.7908 158.131 62.058 157.079L59.4636 161.353C61.3624 162.506 63.409 163.597 65.6211 164.589L67.6662 160.026ZM91.9833 164.215C83.3811 164.215 75.1356 162.711 67.4915 159.956L65.7957 164.659C73.9759 167.608 82.7948 169.215 91.9833 169.215V164.215ZM105.891 162.877C101.392 163.754 96.7428 164.215 91.9833 164.215V169.215C97.0658 169.215 102.036 168.723 106.848 167.784L105.891 162.877ZM157.672 120.154C148.23 140.05 128.602 157.387 105.782 162.901L106.957 167.761C131.359 161.865 152.153 143.447 162.189 122.298L157.672 120.154ZM157.69 120.117L157.676 120.148L162.186 122.305L162.201 122.274L157.69 120.117ZM163.517 97.5234C162.995 104.237 161.547 112.106 157.693 120.111L162.198 122.28C166.4 113.554 167.949 105.034 168.502 97.9106L163.517 97.5234ZM163.647 95.5489C163.612 96.1948 163.569 96.8533 163.517 97.5234L168.502 97.9106C168.557 97.1995 168.602 96.5022 168.64 95.82L163.647 95.5489ZM97.2479 145.377C118.092 129.31 123.351 106.983 124.665 95.9808L119.7 95.3881C118.461 105.762 113.521 126.52 94.1954 141.417L97.2479 145.377ZM97.2293 145.392L97.248 145.377L94.1953 141.417L94.1766 141.432L97.2293 145.392ZM98.4889 146.987C118.838 131.301 124.736 109.841 126.438 98.0749L121.49 97.3592C119.883 108.467 114.343 128.453 95.4363 143.027L98.4889 146.987ZM64.5452 161.329C74.7539 159.977 86.6287 156.057 98.4563 147.012L95.419 143.04C84.3558 151.5 73.3238 155.123 63.889 156.372L64.5452 161.329ZM68.4313 158.142C67.3794 157.668 66.3696 157.169 65.3991 156.648L63.0351 161.054C64.1049 161.628 65.2187 162.179 66.3793 162.701L68.4313 158.142ZM91.9833 162.182C83.6457 162.182 75.6572 160.73 68.2507 158.069L66.5599 162.774C74.5011 165.628 83.0612 167.182 91.9833 167.182V162.182ZM105.459 160.89C101.101 161.738 96.5963 162.182 91.9833 162.182V167.182C96.9183 167.182 101.743 166.706 106.413 165.798L105.459 160.89ZM155.836 119.283C146.641 138.657 127.505 155.546 105.347 160.915L106.525 165.774C130.264 160.022 150.564 142.053 160.353 121.427L155.836 119.283ZM155.838 119.28L155.835 119.285L160.354 121.424L160.357 121.419L155.838 119.28ZM161.478 97.5186C160.96 104.031 159.546 111.577 155.862 119.229L160.367 121.398C164.396 113.03 165.911 104.838 166.463 97.9155L161.478 97.5186ZM123.964 100.217H163.971V95.217H123.964V100.217ZM61.9787 80.94H19.6879V85.94H61.9787V80.94ZM85.9857 36.6679L85.9204 36.7128L88.7504 40.8348L88.8158 40.7899L85.9857 36.6679ZM107.853 83.4379V89.5612H112.853V83.4379H107.853ZM166.201 80.9379H110.353V85.9379H166.201V80.9379ZM76.1135 95.6866V89.5633H71.1135V95.6866H76.1135ZM17.368 98.1866H73.6135V93.1866H17.368V98.1866ZM19.5325 100.219H75.6461V95.2191H19.5325V100.219ZM78.1461 97.7191V89.5633H73.1461V97.7191H78.1461ZM163.887 78.9053H108.321V83.9053H163.887V78.9053ZM105.821 81.4053V89.5612H110.821V81.4053H105.821ZM80.8895 183.415L80.8966 183.415L81.5062 178.453L81.499 178.452L80.8895 183.415ZM183.073 83.5927V81.4053H178.073V83.5927H183.073ZM86.7936 0.533327L86.7735 0.533896L86.9151 5.53189L86.9352 5.53132L86.7936 0.533327ZM122.182 98.1845H166.143V93.1845H122.182V98.1845ZM98.4641 147.006L98.489 146.987L95.4362 143.027L95.4112 143.046L98.4641 147.006ZM155.86 119.234L155.842 119.27L160.352 121.429L160.369 121.393L155.86 119.234Z" fill="#2752E7" mask="url(#path-8-outside-1_2183_13058)"/>
</svg>
